<svg xmlns="http://www.w3.org/2000/svg" version="1" viewBox="0 0 512 512">
  <path d="M128 446l-18-6c-33-13-72-13-106 0l7 15c29-12 63-12 93 1 34 13 73 13 106 0 30-13 64-13 94 0 48 19 89 6 106 0 30-13 64-13 94 0l6-16c-15-6-30-9-46-10l41-125H339V142h169l-37-66 37-65H339V3h-16v302H2l126 141zM480 27l-28 49 28 49H339V27h141zm-34 404c-14 1-29 4-42 9-30 13-64 13-94 0-33-13-72-13-106 0-16 7-34 10-51 9L39 321h444l-37 110zM404 484c-30 12-64 12-94 0-34-14-72-14-106 0-30 12-64 12-94 0-33-14-72-14-106 0l6 15c30-12 64-12 94 0 34 14 73 14 106 0 30-12 64-11 94 0 52 19 89 7 106 0 30-12 64-12 94 0l6-15c-34-14-72-14-106 0z"/>
</svg>
