<svg xmlns="http://www.w3.org/2000/svg" width="256" height="256" version="1" viewBox="0 -1 256 256">
  <path fill="#41d3bd" d="M246 255c-5 0-10-1-14-3a35 35 0 0 0-30 0 36 36 0 0 1-30 0 35 35 0 0 0-30 0 36 36 0 0 1-29 0 35 35 0 0 0-30 0 36 36 0 0 1-29 0 35 35 0 0 0-30 0c-5 2-9 3-15 3v-21c6 0 10-2 15-4a37 37 0 0 1 30 0 35 35 0 0 0 29 0 36 36 0 0 1 30 0 35 35 0 0 0 29 0 37 37 0 0 1 30 0 35 35 0 0 0 30 0 36 36 0 0 1 30 0c4 2 9 4 14 4v21z"/>
  <path fill="#e6af2e" d="M151-1L16 164h135V-1zm13 38v127h80c7-59-40-108-80-127z"/>
  <path fill="#632b30" d="M227 176H48v33l6 2a37 37 0 0 0 29 0 36 36 0 0 1 30 0 36 36 0 0 0 29 0 36 36 0 0 1 30 0l15 3 3-1h5c11-3 18-11 18-11l20-26h-6z"/>
</svg>
